
<global>
amp_veltrack=0
ampeg_attack=0.02
ampeg_release=0.55
</global>

<group>
group_label=PP
xf_cccurve=gain
xfin_hicc1=42
xfout_hicc1=85
xfout_locc1=42

<region>
end=392456
hikey=g#4
hivel=127
lokey=g4
loop_end=283645
loop_mode=loop_continuous
loop_start=84831
loop_xfade=28260
lovel=0
offset=14561
pitch_keycenter=g#4
sample=Basses_trill_whole_PP_G#5.opus
</region>

<region>
end=391120
hikey=f#5
hivel=127
lokey=f5
loop_end=282680
loop_mode=loop_continuous
loop_start=84542
loop_xfade=28164
lovel=0
offset=12715
pitch_keycenter=f#5
sample=Basses_trill_whole_PP_F#6.opus
</region>

<region>
end=387824
hikey=f#4
hivel=127
lokey=f4
loop_end=280298
loop_mode=loop_continuous
loop_start=83830
loop_xfade=27927
lovel=0
offset=12039
pitch_keycenter=f#4
sample=Basses_trill_whole_PP_F#5.opus
</region>

<region>
end=379280
fade_out=374035
hikey=e5
hivel=127
lokey=d#5
loop_end=286649
loop_mode=loop_continuous
loop_start=85729
loop_xfade=28559
lovel=0
offset=23654
pitch_keycenter=e5
sample=Basses_trill_whole_PP_E6.opus
</region>

<region>
end=393787
hikey=e4
hivel=127
lokey=d#4
loop_end=284607
loop_mode=loop_continuous
loop_start=85119
loop_xfade=28356
lovel=0
offset=16293
pitch_keycenter=e4
sample=Basses_trill_whole_PP_E5.opus
</region>

<region>
end=398710
hikey=d5
hivel=127
lokey=c#5
loop_end=288165
loop_mode=loop_continuous
loop_start=86183
loop_xfade=28710
lovel=0
offset=18856
pitch_keycenter=d5
sample=Basses_trill_whole_PP_D6.opus
</region>

<region>
end=377621
fade_out=372663
hikey=d4
hivel=127
lokey=c#4
loop_end=280320
loop_mode=loop_continuous
loop_start=83837
loop_xfade=27929
lovel=0
offset=12129
pitch_keycenter=d4
sample=Basses_trill_whole_PP_D5.opus
</region>

<region>
end=376936
hikey=c5
hivel=127
lokey=b4
loop_end=272428
loop_mode=loop_continuous
loop_start=81476
loop_xfade=27143
lovel=0
offset=13457
pitch_keycenter=c5
sample=Basses_trill_whole_PP_C6.opus
</region>

<region>
end=394042
hikey=c4
hivel=127
lokey=C3
loop_end=284792
loop_mode=loop_continuous
loop_start=85174
loop_xfade=28374
lovel=0
offset=14972
pitch_keycenter=c4
sample=Basses_trill_whole_PP_C5.opus
</region>

<region>
end=388846
hikey=a#4
hivel=127
lokey=a4
loop_end=281036
loop_mode=loop_continuous
loop_start=84051
loop_xfade=28000
lovel=0
offset=16248
pitch_keycenter=a#4
sample=Basses_trill_whole_PP_A#5.opus
</region>
</group>

<group>
group_label=MF
xf_cccurve=gain
xfin_hicc1=85
xfin_locc1=42
xfout_hicc1=127
xfout_locc1=85

<region>
end=377024
hikey=g#4
hivel=127
lokey=g4
loop_end=272492
loop_mode=loop_continuous
loop_start=81495
loop_xfade=27149
lovel=0
offset=16559
pitch_keycenter=g#4
sample=Basses_trill_whole_MF_G#5.opus
</region>

<region>
end=387119
hikey=f#5
hivel=127
lokey=f5
loop_end=279788
loop_mode=loop_continuous
loop_start=83678
loop_xfade=27876
lovel=0
offset=15391
pitch_keycenter=f#5
sample=Basses_trill_whole_MF_F#6.opus
</region>

<region>
end=382651
hikey=f#4
hivel=127
lokey=f4
loop_end=276559
loop_mode=loop_continuous
loop_start=82712
loop_xfade=27554
lovel=0
offset=14790
pitch_keycenter=f#4
sample=Basses_trill_whole_MF_F#5.opus
</region>

<region>
end=394789
hikey=e5
hivel=127
lokey=d#5
loop_end=285332
loop_mode=loop_continuous
loop_start=85335
loop_xfade=28428
lovel=0
offset=17158
pitch_keycenter=e5
sample=Basses_trill_whole_MF_E6.opus
</region>

<region>
end=386178
hikey=e4
hivel=127
lokey=d#4
loop_end=279108
loop_mode=loop_continuous
loop_start=83474
loop_xfade=27808
lovel=0
offset=12371
pitch_keycenter=e4
sample=Basses_trill_whole_MF_E5.opus
</region>

<region>
end=418123
hikey=d5
hivel=127
lokey=c#5
loop_end=280144
loop_mode=loop_continuous
loop_start=87914
loop_xfade=47193
lovel=0
offset=15745
pitch_keycenter=d5
sample=Basses_trill_whole_MF_D6.opus
</region>

<region>
end=369594
hikey=d4
hivel=127
lokey=c#4
loop_end=267122
loop_mode=loop_continuous
loop_start=79889
loop_xfade=26614
lovel=0
offset=20207
pitch_keycenter=d4
sample=Basses_trill_whole_MF_D5.opus
</region>

<region>
end=379185
hikey=c5
hivel=127
lokey=b4
loop_end=274054
loop_mode=loop_continuous
loop_start=81963
loop_xfade=27304
lovel=0
offset=15054
pitch_keycenter=c5
sample=Basses_trill_whole_MF_C6.opus
</region>

<region>
end=385046
hikey=c4
hivel=127
lokey=C3
loop_end=278290
loop_mode=loop_continuous
loop_start=83229
loop_xfade=27727
lovel=0
offset=16959
pitch_keycenter=c4
sample=Basses_trill_whole_MF_C5.opus
</region>

<region>
end=384382
hikey=a#4
hivel=127
lokey=a4
loop_end=277810
loop_mode=loop_continuous
loop_start=83086
loop_xfade=27679
lovel=0
offset=18418
pitch_keycenter=a#4
sample=Basses_trill_whole_MF_A#5.opus
</region>
</group>

<group>
group_label=FF
xf_cccurve=gain
xfin_hicc1=127
xfin_locc1=85
xfout_hicc1=127
xfout_locc1=127

<region>
end=1138319
hikey=A#4
hivel=127
lokey=g4
loop_end=299305
loop_mode=loop_continuous
loop_start=107564
loop_xfade=21004
lovel=0
offset=8295
pitch_keycenter=g#4
sample=Basses_trill_whole_FF_G#5.opus
</region>

<region>
end=396591
hikey=f#5
hivel=127
lokey=f5
loop_end=286634
loop_mode=loop_continuous
loop_start=85725
loop_xfade=28558
lovel=0
offset=14343
pitch_keycenter=f#5
sample=Basses_trill_whole_FF_F#6.opus
</region>

<region>
end=374275
hikey=f#4
hivel=127
lokey=f4
loop_end=289817
loop_mode=loop_continuous
loop_start=80901
loop_xfade=26951
lovel=0
offset=15904
pitch_keycenter=f#4
sample=Basses_trill_whole_FF_F#5.opus
</region>

<region>
end=407682
hikey=e5
hivel=127
lokey=d#5
loop_end=286498
loop_mode=loop_continuous
loop_start=48340
loop_xfade=8179
lovel=0
offset=10877
pitch_keycenter=e5
sample=Basses_trill_whole_FF_E6.opus
</region>

<region>
end=335666
hikey=e4
hivel=127
lokey=d#4
loop_end=275393
loop_mode=loop_continuous
loop_start=72556
loop_xfade=24171
lovel=0
offset=8703
pitch_keycenter=e4
sample=Basses_trill_whole_FF_E5.opus
</region>

<region>
end=365883
hikey=d5
hivel=127
lokey=c#5
loop_end=294138
loop_mode=loop_continuous
loop_start=79087
loop_xfade=26347
lovel=0
offset=14412
pitch_keycenter=d5
sample=Basses_trill_whole_FF_D6.opus
</region>

<region>
end=377474
hikey=d4
hivel=127
lokey=c#4
loop_end=268122
loop_mode=loop_continuous
loop_start=81593
loop_xfade=27181
lovel=0
offset=11117
pitch_keycenter=d4
sample=Basses_trill_whole_FF_D5.opus
</region>

<region>
end=320428
hikey=c5
hivel=127
lokey=b4
loop_end=281521
loop_mode=loop_continuous
loop_start=69262
loop_xfade=23073
lovel=0
offset=1208
pitch_keycenter=c5
sample=Basses_trill_whole_FF_C6.opus
</region>

<region>
end=384726
hikey=c4
hivel=127
lokey=C3
loop_end=316881
loop_mode=loop_continuous
loop_start=83160
loop_xfade=27704
lovel=0
offset=11847
pitch_keycenter=c4
sample=Basses_trill_whole_FF_C5.opus
</region>
</group>

<group>
ampeg_attack=0.02
ampeg_release=3.5
group_label=PP_Release
trigger=release
xf_cccurve=gain
xfin_hicc1=42
xfout_hicc1=85
xfout_locc1=42

<region>
end=392456
fade_out=342456
hikey=g#4
hivel=127
lokey=g4
lovel=0
offset=306196
pitch_keycenter=g#4
sample=Basses_trill_whole_PP_G#5.opus
</region>

<region>
end=391120
fade_out=341120
hikey=f#5
hivel=127
lokey=f5
lovel=0
offset=312777
pitch_keycenter=f#5
sample=Basses_trill_whole_PP_F#6.opus
</region>

<region>
end=387824
fade_out=337824
hikey=f#4
hivel=127
lokey=f4
lovel=0
offset=282822
pitch_keycenter=f#4
sample=Basses_trill_whole_PP_F#5.opus
</region>

<region>
end=364512
fade_out=314512
hikey=e5
hivel=127
lokey=d#5
lovel=0
offset=298580
pitch_keycenter=e5
sample=Basses_trill_whole_PP_E6.opus
</region>

<region>
end=370523
fade_out=320523
hikey=e4
hivel=127
lokey=d#4
lovel=0
offset=307940
pitch_keycenter=e4
sample=Basses_trill_whole_PP_E5.opus
</region>

<region>
end=398710
fade_out=348710
hikey=d5
hivel=127
lokey=c#5
lovel=0
offset=301395
pitch_keycenter=d5
sample=Basses_trill_whole_PP_D6.opus
</region>

<region>
end=364282
fade_out=314282
hikey=d4
hivel=127
lokey=c#4
lovel=0
offset=299970
pitch_keycenter=d4
sample=Basses_trill_whole_PP_D5.opus
</region>

<region>
end=376936
fade_out=326936
hikey=c5
hivel=127
lokey=b4
lovel=0
offset=290031
pitch_keycenter=c5
sample=Basses_trill_whole_PP_C6.opus
</region>

<region>
end=394042
fade_out=344042
hikey=c4
hivel=127
lokey=C3
lovel=0
offset=305491
pitch_keycenter=c4
sample=Basses_trill_whole_PP_C5.opus
</region>

<region>
end=388846
fade_out=338846
hikey=a#4
hivel=127
lokey=a4
lovel=0
offset=296922
pitch_keycenter=a#4
sample=Basses_trill_whole_PP_A#5.opus
</region>
</group>

<group>
ampeg_attack=0.02
ampeg_release=3.5
group_label=MF_Release
trigger=release
xf_cccurve=gain
xfin_hicc1=85
xfin_locc1=42
xfout_hicc1=127
xfout_locc1=85

<region>
end=377024
fade_out=342024
hikey=g#4
hivel=127
lokey=g4
lovel=0
offset=302265
pitch_keycenter=g#4
sample=Basses_trill_whole_MF_G#5.opus
</region>

<region>
end=387119
fade_out=352119
hikey=f#5
hivel=127
lokey=f5
lovel=0
offset=307440
pitch_keycenter=f#5
sample=Basses_trill_whole_MF_F#6.opus
</region>

<region>
end=382651
fade_out=347651
hikey=f#4
hivel=127
lokey=f4
lovel=0
offset=295032
pitch_keycenter=f#4
sample=Basses_trill_whole_MF_F#5.opus
</region>

<region>
end=373840
fade_out=338840
hikey=e5
hivel=127
lokey=d#5
lovel=0
offset=305232
pitch_keycenter=e5
sample=Basses_trill_whole_MF_E6.opus
</region>

<region>
end=386178
fade_out=351178
hikey=e4
hivel=127
lokey=d#4
lovel=0
offset=296619
pitch_keycenter=e4
sample=Basses_trill_whole_MF_E5.opus
</region>

<region>
end=384217
fade_out=349217
hikey=d5
hivel=127
lokey=c#5
lovel=0
offset=289659
pitch_keycenter=d5
sample=Basses_trill_whole_MF_D6.opus
</region>

<region>
end=369594
fade_out=334594
hikey=d4
hivel=127
lokey=c#4
lovel=0
offset=295879
pitch_keycenter=d4
sample=Basses_trill_whole_MF_D5.opus
</region>

<region>
end=379185
fade_out=344185
hikey=c5
hivel=127
lokey=b4
lovel=0
offset=301385
pitch_keycenter=c5
sample=Basses_trill_whole_MF_C6.opus
</region>

<region>
end=385046
fade_out=350046
hikey=c4
hivel=127
lokey=C3
lovel=0
offset=292641
pitch_keycenter=c4
sample=Basses_trill_whole_MF_C5.opus
</region>

<region>
end=384382
fade_out=349382
hikey=a#4
hivel=127
lokey=a4
lovel=0
offset=308164
pitch_keycenter=a#4
sample=Basses_trill_whole_MF_A#5.opus
</region>
</group>

<group>
ampeg_attack=0.02
ampeg_release=3.5
group_label=FF_Release
trigger=release
xf_cccurve=gain
xfin_hicc1=127
xfin_locc1=85
xfout_hicc1=127
xfout_locc1=127

<region>
end=385297
fade_out=337297
hikey=A#4
hivel=127
lokey=g4
lovel=0
offset=305259
pitch_keycenter=g#4
sample=Basses_trill_whole_FF_G#5.opus
</region>

<region>
end=396591
fade_out=348591
hikey=f#5
hivel=127
lokey=f5
lovel=0
offset=316272
pitch_keycenter=f#5
sample=Basses_trill_whole_FF_F#6.opus
</region>

<region>
end=374275
fade_out=326275
hikey=f#4
hivel=127
lokey=f4
lovel=0
offset=297241
pitch_keycenter=f#4
sample=Basses_trill_whole_FF_F#5.opus
</region>

<region>
end=384708
fade_out=336708
hikey=e5
hivel=127
lokey=d#5
lovel=0
offset=310468
pitch_keycenter=e5
sample=Basses_trill_whole_FF_E6.opus
</region>

<region>
end=335666
fade_out=287666
hikey=e4
hivel=127
lokey=d#4
lovel=0
offset=307117
pitch_keycenter=e4
sample=Basses_trill_whole_FF_E5.opus
</region>

<region>
end=365883
fade_out=317883
hikey=d5
hivel=127
lokey=c#5
lovel=0
offset=308646
pitch_keycenter=d5
sample=Basses_trill_whole_FF_D6.opus
</region>

<region>
end=377474
fade_out=329474
hikey=d4
hivel=127
lokey=c#4
lovel=0
offset=311148
pitch_keycenter=d4
sample=Basses_trill_whole_FF_D5.opus
</region>

<region>
end=320428
fade_out=299598
hikey=c5
hivel=127
lokey=b4
lovel=0
offset=294148
pitch_keycenter=c5
sample=Basses_trill_whole_FF_C6.opus
</region>

<region>
end=384726
fade_out=336726
hikey=c4
hivel=127
lokey=C3
lovel=0
offset=331767
pitch_keycenter=c4
sample=Basses_trill_whole_FF_C5.opus
</region>
</group>